<svg width="1713" height="1160" viewBox="0 0 1713 1160" fill="none" xmlns="http://www.w3.org/2000/svg">
<g opacity="0.5" filter="url(#filter0_f_2003_12)">
<path d="M1511 202C1511 345.829 1204.24 958 1044.53 958C884.824 958 708.438 841.404 708.438 697.575C708.438 553.747 499.473 988.583 202 825.516C361.709 825.516 1062.97 313.728 1511 202Z" fill="#0B0D13"/>
<path d="M1511 202C1511 345.829 1204.24 958 1044.53 958C884.824 958 708.438 841.404 708.438 697.575C708.438 553.747 499.473 988.583 202 825.516C361.709 825.516 1062.97 313.728 1511 202Z" fill="url(#paint0_linear_2003_12)" fill-opacity="0.5"/>
</g>
<defs>
<filter id="filter0_f_2003_12" x="0.300003" y="0.300003" width="1712.4" height="1159.4" filterUnits="userSpaceOnUse" color-interpolation-filters="sRGB">
<feFlood flood-opacity="0" result="BackgroundImageFix"/>
<feBlend mode="normal" in="SourceGraphic" in2="BackgroundImageFix" result="shape"/>
<feGaussianBlur stdDeviation="100.85" result="effect1_foregroundBlur_2003_12"/>
</filter>
<linearGradient id="paint0_linear_2003_12" x1="562.575" y1="270.738" x2="543.291" y2="1157.84" gradientUnits="userSpaceOnUse">
<stop stop-color="#A50404"/>
<stop offset="1" stop-color="#0B0C10"/>
</linearGradient>
</defs>
</svg>
